<svg xmlns="http://www.w3.org/2000/svg" viewBox="0 0 24 24" fill="none" role="img" aria-label="대장">
  <path d="M7 4.8c-1.3 0-2.4 1.1-2.4 2.4v1.5c0 .9.4 1.8 1 2.4l.9.9c.6.6.9 1.4.9 2.2v.2c0 1-.8 1.8-1.8 1.8-.9 0-1.6.7-1.6 1.6v.7c0 1 .8 1.8 1.8 1.8h1.1c1.3 0 2.6-.5 3.4-1.5l.7-.8c.7-.8 1.7-1.2 2.7-1.2h.4c1 0 1.8-.8 1.8-1.8v-.6c0-1 .8-1.8 1.8-1.8 1 0 1.8-.8 1.8-1.8V8.5c0-1.5-1.2-2.7-2.7-2.7h-1.4" stroke="currentColor" stroke-width="1.75" stroke-linecap="round" stroke-linejoin="round"/>
  <path d="M7 4.8c.7 0 1.4.3 1.9.8l.8.8c.5.5 1.2.8 1.9.8h1.7c1 0 1.8.8 1.8 1.8v1.1" stroke="currentColor" stroke-width="1.75" stroke-linecap="round" stroke-linejoin="round"/>
  <path d="M8.6 18.5c.8 0 1.6-.3 2.2-1l.7-.8c.5-.6 1.3-1 2.1-1h.6" stroke="currentColor" stroke-width="1.75" stroke-linecap="round"/>
</svg>
