<svg xmlns="http://www.w3.org/2000/svg" viewBox="0 0 24 24" fill="none" role="img" aria-label="문진">
  <path d="M7 4.5h10A2.5 2.5 0 0 1 19.5 7v6A2.5 2.5 0 0 1 17 15.5h-4.7l-3.8 3v-3H7A2.5 2.5 0 0 1 4.5 13V7A2.5 2.5 0 0 1 7 4.5Z" stroke="currentColor" stroke-width="1.75" stroke-linejoin="round"/>
  <path d="M9.2 9.3c.2-1 1.1-1.8 2.1-1.8 1.2 0 2.1.9 2.1 2 0 1.4-1.3 1.7-1.8 2.5-.2.3-.2.6-.2 1" stroke="currentColor" stroke-width="1.75" stroke-linecap="round" stroke-linejoin="round"/>
  <circle cx="11.9" cy="17.1" r="0.85" fill="currentColor"/>
</svg>
