<svg xmlns="http://www.w3.org/2000/svg" viewBox="0 0 24 24" fill="none" role="img" aria-label="수면">
  <path d="M14.8 4.8a7.2 7.2 0 1 0 4.4 13c-1.4.4-3 .5-4.5.2a7.2 7.2 0 0 1 .1-13.2Z" stroke="currentColor" stroke-width="1.75" stroke-linejoin="round"/>
  <path d="M4.8 8.4h2.2M5.9 7.3v2.2M16.7 8.2h1.7M17.6 7.3v1.8M7.1 5.8h1.5M17.8 14.4h1.6" stroke="currentColor" stroke-width="1.5" stroke-linecap="round"/>
  <path d="M8.7 16.8c1.1 0 2-.7 2.4-1.7.3.5.8.8 1.4.8.9 0 1.6-.6 1.8-1.4.1-.4.1-.8 0-1.2" stroke="currentColor" stroke-width="1.75" stroke-linecap="round" stroke-linejoin="round"/>
  <path d="M12.2 11.2c.5-1 1.5-1.8 2.8-2.1" stroke="currentColor" stroke-width="1.75" stroke-linecap="round"/>
</svg>
