<svg xmlns="http://www.w3.org/2000/svg" viewBox="0 0 24 24" fill="none" role="img" aria-label="위">
  <path d="M10.4 4.2c1.1.5 1.8 1.6 1.8 2.8v2.1c0 .9.7 1.6 1.6 1.6h.8c1.3 0 2.4 1.1 2.4 2.4 0 1.5-.5 2.9-1.5 4.1l-.7.8c-.7.8-1.1 1.7-1.2 2.8" stroke="currentColor" stroke-width="1.75" stroke-linecap="round" stroke-linejoin="round"/>
  <path d="M10.4 4.2c-.7.8-1 1.8-1 2.9v1.8c0 .9-.7 1.6-1.6 1.6H7c-1.2 0-2.2 1-2.2 2.2v.4c0 1.4.5 2.7 1.4 3.7l.8.8c.7.7 1.1 1.7 1.2 2.8" stroke="currentColor" stroke-width="1.75" stroke-linecap="round" stroke-linejoin="round"/>
  <path d="M13.7 8.1c.4-.7 1-1.2 1.8-1.5" stroke="currentColor" stroke-width="1.75" stroke-linecap="round"/>
</svg>
